<svg xmlns="http://www.w3.org/2000/svg" viewBox="919 163 33.549 40">
  <defs>
    <style>
      .cls-1 {
        fill: #41aeca;
      }

      .cls-2 {
        fill: #7da940;
      }
    </style>
  </defs>
  <g id="wheat" transform="translate(879.003 163)">
    <g id="Group_2" data-name="Group 2" transform="translate(39.997 10.322)">
      <g id="Group_1" data-name="Group 1" transform="translate(0)">
        <path id="Path_1" data-name="Path 1" class="cls-1" d="M52.712,146.248l-5.918-5.917-2.281-2.281v-7.8a2.258,2.258,0,1,0-4.516,0v14.194a.646.646,0,0,0,.137.4l5.67,7.245v5.584h1.29v-5.807a.646.646,0,0,0-.137-.4l-5.67-7.245V130.252a.968.968,0,1,1,1.936,0v8.065a.645.645,0,0,0,.189.456l.945.945a2.459,2.459,0,0,0-1.055,4.106l3.981,3.982.912-.912-3.982-3.982a1.18,1.18,0,0,1,.835-2.014,1.175,1.175,0,0,1,.833.344l.112.112,5.617,5.617v10.7H52.9V146.7A.642.642,0,0,0,52.712,146.248Z" transform="translate(-39.997 -127.994)"/>
      </g>
    </g>
    <g id="Group_4" data-name="Group 4" transform="translate(60.642 10.322)">
      <g id="Group_3" data-name="Group 3" transform="translate(0)">
        <path id="Path_2" data-name="Path 2" class="cls-1" d="M306.642,127.994a2.261,2.261,0,0,0-2.258,2.258v7.8l-2.279,2.279h0l-5.917,5.917a.645.645,0,0,0-.189.456v10.968h1.29v-10.7l5.617-5.618.114-.114a1.18,1.18,0,0,1,1.665,1.672l-3.981,3.982.912.912,3.981-3.982a2.459,2.459,0,0,0-1.055-4.106l.945-.945a.642.642,0,0,0,.189-.456v-8.065a.968.968,0,1,1,1.935,0v13.971l-5.67,7.245a.646.646,0,0,0-.137.4v5.807h1.29v-5.584l5.67-7.245a.644.644,0,0,0,.137-.4V130.252A2.261,2.261,0,0,0,306.642,127.994Z" transform="translate(-295.997 -127.994)"/>
      </g>
    </g>
    <g id="Group_6" data-name="Group 6" transform="translate(49.675 0)">
      <g id="Group_5" data-name="Group 5" transform="translate(0 0)">
        <path id="Path_3" data-name="Path 3" class="cls-2" d="M173.578,17.425c-.135-.008-3.363-.163-5.324,1.8a4.969,4.969,0,0,0-.514.614V17.408a7.21,7.21,0,0,0,4.648-1.793c1.961-1.961,1.806-5.188,1.8-5.324a.644.644,0,0,0-.608-.608c-.135-.009-3.363-.163-5.324,1.8a4.969,4.969,0,0,0-.514.614V9.975c.689-.609,2.581-2.492,2.581-4.814,0-2.777-2.712-4.934-2.828-5.024a.646.646,0,0,0-.8,0c-.117.091-2.83,2.247-2.83,5.024,0,2.322,1.892,4.205,2.581,4.814v2.119a5.027,5.027,0,0,0-.514-.614c-1.961-1.961-5.187-1.806-5.324-1.8a.644.644,0,0,0-.608.608c-.008.136-.162,3.363,1.8,5.324a7.214,7.214,0,0,0,4.648,1.793v2.428a5.027,5.027,0,0,0-.514-.614c-1.961-1.961-5.187-1.806-5.324-1.8a.644.644,0,0,0-.608.608c-.008.136-.162,3.363,1.8,5.324a7.214,7.214,0,0,0,4.648,1.793v3.882h1.29V25.15a7.21,7.21,0,0,0,4.647-1.793c1.961-1.961,1.806-5.188,1.8-5.324A.644.644,0,0,0,173.578,17.425Zm-4.412-5.032a5.922,5.922,0,0,1,3.722-1.411,5.9,5.9,0,0,1-1.412,3.721,5.922,5.922,0,0,1-3.722,1.411A5.9,5.9,0,0,1,169.166,12.393Zm-6.452,2.31A5.922,5.922,0,0,1,161.3,10.98a5.9,5.9,0,0,1,3.72,1.412,5.922,5.922,0,0,1,1.411,3.723A5.9,5.9,0,0,1,162.714,14.7Zm0,7.742a5.922,5.922,0,0,1-1.411-3.723,5.9,5.9,0,0,1,3.72,1.412,5.922,5.922,0,0,1,1.411,3.723A5.9,5.9,0,0,1,162.714,22.445Zm4.381-13.631a5.656,5.656,0,0,1-1.936-3.653,5.656,5.656,0,0,1,1.936-3.653,5.656,5.656,0,0,1,1.936,3.653A5.656,5.656,0,0,1,167.095,8.814Zm4.381,13.631a5.922,5.922,0,0,1-3.722,1.411,5.9,5.9,0,0,1,1.412-3.721,5.922,5.922,0,0,1,3.722-1.411A5.9,5.9,0,0,1,171.475,22.445Z" transform="translate(-159.998 0)"/>
      </g>
    </g>
  </g>
</svg>
