<svg xmlns="http://www.w3.org/2000/svg" viewBox="1510 163 32.593 40">
  <defs>
    <style>
      .cls-1 {
        fill: #41aeca;
      }

      .cls-2 {
        fill: #7da940;
      }
    </style>
  </defs>
  <g id="unlocked" transform="translate(1505 163)">
    <path id="Path_8" data-name="Path 8" class="cls-1" d="M33.148,14.9V10.741C33.148,4.819,27.831,0,21.3,0S9.444,4.819,9.444,10.741a.741.741,0,0,0,1.481,0c0-5.106,4.652-9.259,10.37-9.259s10.37,4.153,10.37,9.259v4.074H10.355A5.361,5.361,0,0,0,5,20.17V34.645A5.361,5.361,0,0,0,10.355,40H32.238a5.361,5.361,0,0,0,5.355-5.355V20.17A5.359,5.359,0,0,0,33.148,14.9Zm2.963,19.747a3.878,3.878,0,0,1-3.873,3.873H10.355a3.878,3.878,0,0,1-3.873-3.873V20.17A3.878,3.878,0,0,1,10.355,16.3H32.238a3.878,3.878,0,0,1,3.873,3.873Z"/>
    <path id="Path_9" data-name="Path 9" class="cls-2" d="M25.963,28A2.966,2.966,0,0,0,23,30.963v4.444a2.963,2.963,0,0,0,5.926,0V30.963A2.966,2.966,0,0,0,25.963,28Zm1.481,7.407a1.481,1.481,0,1,1-2.963,0V30.963a1.481,1.481,0,1,1,2.963,0Z" transform="translate(-4.667 -7.259)"/>
  </g>
</svg>
