<svg xmlns="http://www.w3.org/2000/svg" viewBox="1209 163 40.702 40">
  <defs>
    <style>
      .cls-1 {
        fill: #41aeca;
      }

      .cls-2 {
        fill: #7da940;
      }
    </style>
  </defs>
  <g id="calendar_1_" data-name="calendar (1)" transform="translate(1209 162.5)">
    <path id="Path_4" data-name="Path 4" class="cls-1" d="M30.1,3.307A3.515,3.515,0,0,0,26.667.5a.7.7,0,0,0,0,1.4,2.105,2.105,0,1,1,0,4.211.7.7,0,0,0,0,1.4A3.515,3.515,0,0,0,30.1,4.711H39.3V9.623H1.4V4.711h11.93a.7.7,0,1,0,0-1.4H12.059a2.1,2.1,0,1,1,1.976,2.807.7.7,0,1,0,0,1.4A3.509,3.509,0,1,0,10.6,3.307H0V40.5H40.7V3.307Zm-9.052,7.719h8.421v8.421H21.053Zm8.421,18.246H21.053V20.851h8.421ZM11.228,20.851h8.421v8.421H11.228Zm0-9.825h8.421v8.421H11.228Zm-9.825.7v-.7H9.825v8.421H1.4Zm0,9.123H9.825v8.421H1.4ZM1.4,39.1V30.675H9.825V39.1Zm9.825,0V30.675h8.421V39.1Zm9.825,0V30.675h8.421V39.1Zm18.246,0H30.877V30.675H39.3Zm0-9.825H30.877V20.851H39.3Zm-8.421-9.825V11.026H39.3v8.421Z"/>
    <path id="Path_5" data-name="Path 5" class="cls-1" d="M25.7,1.9a2.105,2.105,0,0,1,0,4.211.7.7,0,1,0,0,1.4A3.509,3.509,0,1,0,25.7.5a.7.7,0,1,0,0,1.4Z" transform="translate(-7.456)"/>
    <path id="Path_6" data-name="Path 6" class="cls-1" d="M31.7,1.9a2.105,2.105,0,0,1,0,4.211.7.7,0,1,0,0,1.4A3.509,3.509,0,0,0,31.7.5a.7.7,0,1,0,0,1.4Z" transform="translate(-9.246)"/>
    <path id="Path_7" data-name="Path 7" class="cls-2" d="M31.206,37.312a.7.7,0,0,0,.992,0L34.509,35l2.311,2.311a.7.7,0,1,0,.992-.992L35.5,34.009,37.812,31.7a.7.7,0,1,0-.992-.992l-2.311,2.311L32.2,30.706a.7.7,0,0,0-.992.992l2.311,2.311L31.206,36.32A.7.7,0,0,0,31.206,37.312Z" transform="translate(-9.246 -8.947)"/>
  </g>
</svg>
